# xmcd
#
# Track frame offsets:
# 183
# 11055
# 21995
# 35170
# 45745
# 55838
# 67488
# 86648
# 96360
# 106205
# 118453
# 129433
# 142325
# 153558
# 165838
# 176463
# 187018
# 200473
# 215785
#
# Disc length: 3003 seconds
#
#
# Revision: 0
# Processed by: cddbd v1.5.1PL2 Copyright (c) Steve Scherf et al.
# Submitted via: FreeRIP 2.945 
#
DISCID=260bb913
DTITLE=COUNTRY HITS - COUNTRY HITS
DYEAR=1900
DGENRE=Country
TTITLE0=SALLY WAS A GOOD OLD GIRL
TTITLE1=IT WASN'T GOD WHO MADE HONKY TONK ANGELS
TTITLE2=COUNTRY MUSIC IS HERE TO STAY
TTITLE3=AM I THAT EASY TO FORGET
TTITLE4=LIVING IN A HOUSE FULL OF LOVE
TTITLE5=TOUCH ME
TTITLE6=I WANT TO BE WITH YOU TONIGHT
TTITLE7=RELEASE ME
TTITLE8=SHAKE'EM UP ROLL'EM
TTITLE9=SHE THINKS I STILL CARE
TTITLE10=HELP ME MAKE IT THROUGH THE NICHT
TTITLE11=IT'S FOUR IN THE MORNING
TTITLE12=9,999,999 TEARS
TTITLE13=MAMA DON'T ALLOW NO COUNTRY MUSIC HERE
TTITLE14=DREAM BABY
TTITLE15=IF YPU AIN'T LOVIN'
TTITLE16=PATCHES
TTITLE17=THE NIGHT THE DROVE OLD DIXIE DOWN
TTITLE18=FROM A JACK TO A KING
EXTD=
EXTT0=
EXTT1=
EXTT2=
EXTT3=
EXTT4=
EXTT5=
EXTT6=
EXTT7=
EXTT8=
EXTT9=
EXTT10=
EXTT11=
EXTT12=
EXTT13=
EXTT14=
EXTT15=
EXTT16=
EXTT17=
EXTT18=
PLAYORDER=
